<?xml version="1.0" encoding="UTF-8"?><svg id="uuid-ca56feb2-61a1-4a1e-a165-e7be28ce42e7" xmlns="http://www.w3.org/2000/svg" viewBox="0 0 83 83"><rect x="0" width="83" height="83" rx="18.71" ry="18.71" style="fill:#06c755;"/><path d="M69.16,37.59c0-12.38-12.41-22.46-27.67-22.46s-27.67,10.07-27.67,22.46c0,11.1,9.84,20.4,23.14,22.16.9.19,2.13.59,2.44,1.36.28.7.18,1.8.09,2.5,0,0-.32,1.95-.4,2.37-.12.7-.56,2.74,2.4,1.49,2.95-1.24,15.94-9.38,21.74-16.07h0c4.01-4.4,5.93-8.86,5.93-13.82Z" style="fill:#fff;"/><path d="M59.96,44.74h-7.77c-.29,0-.53-.24-.53-.53h0v-12.06h0c0-.3.24-.54.53-.54h7.77c.29,0,.53.24.53.53v1.96c0,.29-.24.53-.53.53h-5.28v2.04h5.28c.29,0,.53.24.53.53v1.96c0,.29-.24.53-.53.53h-5.28v2.04h5.28c.29,0,.53.24.53.53v1.96c0,.29-.24.53-.53.53Z" style="fill:#06c755;"/><path d="M31.2,44.74c.29,0,.53-.24.53-.53v-1.96c0-.29-.24-.53-.53-.53h-5.28v-9.59c0-.29-.24-.53-.53-.53h-1.96c-.29,0-.53.24-.53.53v12.07h0c0,.3.24.54.53.54h7.77Z" style="fill:#06c755;"/><rect x="33.39" y="31.61" width="3.02" height="13.13" rx=".53" ry=".53" style="fill:#06c755;"/><path d="M49.24,31.61h-1.96c-.29,0-.53.24-.53.53v7.17l-5.53-7.46s-.03-.04-.04-.05c0,0,0,0,0,0-.01-.01-.02-.02-.03-.03,0,0,0,0,0,0,0,0-.02-.02-.03-.02,0,0,0,0-.01-.01,0,0-.02-.01-.03-.02,0,0-.01,0-.02,0,0,0-.02-.01-.03-.02,0,0-.01,0-.02,0-.01,0-.02,0-.03-.01,0,0-.01,0-.02,0-.01,0-.02,0-.03-.01,0,0-.01,0-.02,0-.01,0-.02,0-.03,0,0,0-.01,0-.02,0,0,0-.02,0-.03,0,0,0-.02,0-.03,0,0,0-.01,0-.02,0h-1.95c-.29,0-.53.24-.53.53v12.08c0,.29.24.53.53.53h1.96c.29,0,.53-.24.53-.53v-7.17l5.53,7.47c.04.05.08.1.14.13,0,0,0,0,0,0,.01,0,.02.01.03.02,0,0,.01,0,.02,0,0,0,.02,0,.03.01,0,0,.02,0,.03.01,0,0,.01,0,.02,0,.01,0,.02,0,.04.01,0,0,0,0,0,0,.04.01.09.02.14.02h1.95c.29,0,.53-.24.53-.53v-12.08c0-.29-.24-.53-.53-.53Z" style="fill:#06c755;"/></svg>