<?xml version="1.0" encoding="UTF-8"?>
<svg id="hikky_corporate_logo" xmlns="http://www.w3.org/2000/svg" viewBox="0 0 550 550">
  <defs>
    <style>
      .cls-1 {
        fill: #040000;
        stroke-width: 0px;
      }
    </style>
  </defs>
  <g id="BLACK">
    <g id="square_logo" data-name="square logo">
      <g id="icon">
        <path class="cls-1" d="m469.69,212.09c-59.69-50.76-120.96-91.82-189.76-135.61-1.51-.96-3.22-1.45-4.93-1.49-1.72.04-3.43.53-4.93,1.49-68.8,43.79-130.07,84.85-189.76,135.61-5.79,4.94-4.04,12.51,5.74,13.71,9.5,1.17,10.32,1.44,46.77,4.64,4.56.4,8.16,3.94,8,8.5-1.14,33.56.97,65.64,6.31,98.9,43.87,15.58,85.87,23.35,127.86,23.32,42,.03,83.99-7.74,127.86-23.32,5.34-33.26,7.44-65.34,6.31-98.9-.15-4.56,3.45-8.1,8-8.5,36.45-3.2,37.28-3.47,46.77-4.64,9.78-1.21,11.54-8.78,5.74-13.71Zm-93.66,91.39c-.69,5.76-4.65,10.58-10.15,12.28-31.14,9.62-60.94,14.32-90.64,14.32-.08,0-.16,0-.24,0-.08,0-.16,0-.24,0-29.7,0-59.5-4.7-90.64-14.32-5.5-1.7-9.46-6.52-10.15-12.28-4.26-35.67-4.26-71.64,0-107.31.69-5.76,4.65-10.58,10.15-12.28,31.14-9.62,60.94-14.32,90.64-14.32.08,0,.16,0,.24,0,.08,0,.16,0,.24,0,29.7,0,59.5,4.7,90.64,14.32,5.5,1.7,9.46,6.52,10.15,12.28,4.26,35.67,4.26,71.64,0,107.31Z"/>
        <path class="cls-1" d="m311.97,230.3l-9.95.32c-6.96.23-12.06-6.49-9.95-13.12l10.56-33.15c1.67-5.23-4.92-9.09-8.68-5.08l-66.2,70.52c-7.83,8.34-1.65,21.97,9.8,21.6l9.95-.32c6.96-.23,12.06,6.49,9.95,13.12l-10.56,33.15c-1.67,5.23,4.92,9.09,8.68,5.08l66.2-70.52c7.83-8.34,1.65-21.97-9.8-21.6Z"/>
      </g>
      <g id="hikky">
        <g>
          <path class="cls-1" d="m244.5,449.45c.42,8.09.84,16.18,1.27,24.46-1.51-.08-2.69-.15-3.87-.19-2.44-.09-4.88-.14-7.32-.25-2.68-.12-5.37-.24-8.05-.46-3.46-.29-6.85.08-10.23.8-.51.11-1.04.17-1.61.26-.48-7.6-.72-15.08-.18-22.61.42-5.89.22-11.82.22-17.73,0-4.84-.11-9.69-.17-14.53-.04-4.11-.02-8.21-.13-12.32-.04-1.44.94-1.13,1.65-1.14,1.36-.02,2.73.18,4.09.17,7.82-.09,15.65-.22,23.47-.33.12,0,.24.02.54.05-1.11,8.52-.28,17.01.26,25.69.34-.27.53-.4.69-.56,1.2-1.18,2.33-2.45,3.62-3.53,3.6-3.02,6.44-6.71,9.5-10.21,2.72-3.12,5.19-6.39,7.22-9.98.4-.71.93-.89,1.72-.9,5.84-.05,11.67-.12,17.51-.26,2.23-.05,4.45-.35,6.67-.44.88-.03,1.78.21,2.67.33-.02,6.3-2.29,11.75-5.25,16.99-3.55,6.29-8.05,11.84-13.37,16.73-.91.84-1.92,1.56-2.89,2.33,7.75,10.52,15,20.71,20.89,32.01-1.37.13-2.67.38-3.97.37-6.25-.04-12.5-.18-18.76-.21-2.28-.01-4.55.1-6.82.26-.91.06-1.48-.21-1.93-.97-1.85-3.06-3.55-6.23-5.64-9.13-3.18-4.4-6.63-8.6-9.97-12.89-.5-.65-1.03-1.27-1.55-1.9-.1.03-.19.05-.29.08h0Z"/>
          <path class="cls-1" d="m379.75,405.78c-.03,6.29-2.28,11.71-5.21,16.92-3.51,6.22-7.92,11.72-13.16,16.58-.85.78-1.63,1.64-2.44,2.46-.11.12-.2.26-.38.49,7.4,10.09,14.69,20.28,20.59,31.64-1.6.13-3.07.36-4.54.35-4.8-.03-9.6-.19-14.4-.2-3.52,0-7.04.09-10.55.23-.95.04-1.56-.22-2.03-1.02-1.27-2.16-2.58-4.3-3.87-6.45-3.41-5.67-7.51-10.82-11.9-15.75-.46-.51-.88-1.05-1.32-1.58-.11.03-.22.05-.33.08.42,8.07.84,16.14,1.28,24.39-1.52-.08-2.71-.15-3.89-.2-2.36-.09-4.71-.14-7.07-.25-2.77-.13-5.54-.24-8.3-.47-3.46-.29-6.86.08-10.23.81-.48.1-.98.17-1.57.26-.17-2.33-.42-4.6-.49-6.88-.2-6.53.16-13.05.53-19.57.3-5.28-.06-10.59-.13-15.89-.05-4.02-.1-8.05-.13-12.07-.03-4.27,0-8.54-.08-12.81-.03-1.32.87-1.12,1.56-1.12,1.4,0,2.81.19,4.21.17,7.78-.09,15.56-.21,23.34-.33.16,0,.31.02.65.03-1.17,8.57-.27,17.06.25,25.91,3.91-3.97,7.62-7.64,11.21-11.42,1.89-2,3.65-4.14,5.31-6.34,1.58-2.1,3-4.33,4.39-6.55.47-.75.95-1.07,1.86-1.08,5.84-.04,11.67-.12,17.51-.25,2.23-.05,4.45-.35,6.67-.44.87-.03,1.76.22,2.64.34h0Z"/>
          <path class="cls-1" d="m123.54,475c-.5-3.12,0-6.28.44-9.45.68-4.83,1.3-9.68,1.95-14.52.12-.89.26-1.77.41-2.83-5.93-.9-11.75.66-17.66.06-.83,9.01,1.48,17.78.89,26.6-1.88,0-3.75.18-5.57-.03-5.89-.7-11.79-1.05-17.71-.84-1.28.04-2.56.16-3.82.4-.9.17-1.26-.1-1.26-.94.02-2.83-.04-5.67.1-8.49.3-5.82.86-11.63,1.02-17.46.09-3.31-.37-6.63-.6-9.95-.09-1.39-.26-2.78-.3-4.18-.18-8.17-.34-16.34-.49-24.51-.02-.81.07-1.61.1-2.2,3.35.09,6.61.31,9.86.23,5.79-.13,11.57-.46,17.36-.66,1.06-.04,2.13.12,3.3.19-.28,1.41-.63,2.69-.75,3.98-.18,2.12-.44,4.28-.25,6.38.39,4.5.12,8.94-.57,13.37-.05.31-.03.63-.05.9,5.39.99,10.7.42,16.21.06v-24.38c10.24-.68,20.6-1.78,31.22-.22.03.53.15,1.38.09,2.21-.6,8.19-1.14,16.37-2.56,24.48-1.46,8.34-1.58,16.74-.27,25.15.44,2.8.63,5.63,1.12,8.42.31,1.77.93,3.48,1.46,5.21.64,2.1.43,2.46-1.8,2.47-7.45.04-14.89,0-22.34.09-3.14.03-6.27.29-9.55.46h0Z"/>
          <path class="cls-1" d="m408.77,473.99c.71-4.42,1.47-8.69,2.07-12.99.67-4.79,1.22-9.6,1.78-14.41.05-.44-.08-1.01-.35-1.36-2.46-3.29-5.01-6.53-7.46-9.83-3.7-4.99-7.42-9.97-11.01-15.04-2.94-4.16-5.7-8.45-8.54-12.68-.23-.34-.42-.69-.74-1.22,1.17-.11,2.21-.32,3.24-.29,4.75.12,9.53.07,14.25.53,4.1.39,8.17.47,12.25.09.81-.07,1.3.11,1.73.8,2.37,3.81,4.76,7.6,7.17,11.38.85,1.34,1.77,2.65,2.75,4.13.25-.36.48-.67.69-.99,3.12-4.94,6.24-9.87,9.35-14.82.37-.58.74-.82,1.5-.73,6.77.82,13.54.72,20.31-.03,1.5-.17,3.06-.09,4.57.09,2.24.27,4.46.74,6.69,1.12,0,.05,0,.16-.04.2-4.33,3.94-7.61,8.76-11.22,13.3-4.79,6.03-9.73,11.94-14.58,17.92-1.48,1.82-2.95,3.66-4.3,5.57-.46.66-.71,1.57-.78,2.38-.69,7.52.76,14.88,1.82,22.27.15,1.06.38,2.11.43,3.17.02.34-.35.91-.66,1-.82.26-1.7.42-2.55.43-5.09.04-10.18.02-15.27.02-4.38,0-8.76,0-13.12,0h0Z"/>
          <path class="cls-1" d="m199.25,473.33c-9.57.34-19.07.67-28.81,1.02,0-1.44-.06-2.98,0-4.52.37-8.79.11-17.56-.64-26.33-.39-4.52.03-9.11.12-13.66.12-6.61.27-13.22.42-19.83.03-1.35.13-2.7.19-3.96,10.13-.13,20.12-.26,30.09-.39,0,4.59.09,8.89-.02,13.2-.19,7.34-.64,14.68-.74,22.03-.07,5.33.42,10.67.36,16-.06,5.17-.5,10.33-.78,15.5-.02.32-.13.63-.19.95h0Z"/>
        </g>
        <g>
          <path class="cls-1" d="m447.11,465.93h7.33v1.76h-2.79v5.59h-1.75v-5.59h-2.79v-1.76Z"/>
          <path class="cls-1" d="m458.66,473.27l-2.03-4.06v4.06h-1.76v-7.35h1.91l2.61,5.18,2.6-5.18h1.91v7.35h-1.75v-4.06l-2.04,4.06h-1.44Z"/>
        </g>
      </g>
    </g>
  </g>
</svg>