<svg id="uuid-094d8e1a-3a59-41b3-8994-d5e52016e990" xmlns="http://www.w3.org/2000/svg" viewBox="0 0 48 48"><path d="M24,4C12.96,4,4,12.96,4,24s8.96,20,20,20c5.66,0,10.78-2.36,14.42-6.14-.64-.09-1.29-.34-1.91-.76-1.19-.79-2.25-1.54-2.8-2.79h0c-2.16,2.29-5.09,3.05-8.64,3.41-7.19.73-13.41-2.48-14.16-10.5-.32-3.41.44-6.65,1.97-9.3l-.89-3.5c-.14-.61.42-1.19,1.01-1.04l3.08.74c1.83-1.5,4.04-2.48,6.48-2.73,2.09-.21,4.11.14,5.95.94l2.89-1.75c.54-.33,1.23.04,1.29.69l.17,4.12c2.22,2.35,3.74,5.56,4.08,9.19.19,2.06-.02,3.63-.56,5.13-.26.7-.33,1.29.13,1.88.44.57,1.15,1.67,1.94,1.49,1.18-.27,2.46-.21,3.24.29,1.49-2.8,2.34-5.99,2.34-9.39,0-11.04-8.96-20-20-20Z" style="fill:#fff;"/><path d="M33.88,20.73l-1.82-.34c-.06-.28-.12-.45-.21-.72v-.02s1.88-.23,1.88-.23l-.03-.34-1.92.24c-.08-.24-.17-.48-.28-.71l2.11-.67-.07-.42-2.24.77c-1.51-3.16-4.76-5.07-8.45-4.7-3.68.38-6.59,3.02-7.49,6.41l-2.19-.33-.02.43,2.16.24c-.06.25-.11.4-.14.66l-1.89.15.02.34,1.84-.14c-.03.29-.05.47-.06.76l-1.68.69.08.42,1.6-.75c0,.22.01.34.04.57.44,4.72,4.39,5.66,9.11,5.19,4.72-.47,8.42-2.19,7.97-6.91-.02-.22-.06-.34-.09-.56l1.73.38.04-.38Z" style="fill:#fff;"/></svg>